<svg width="133" height="23" viewBox="0 0 133 23" fill="none" xmlns="http://www.w3.org/2000/svg">
  <path d="M26.63 5.575H37.21C38.28 5.575 39.32 5.963 40.12 6.666C40.93 7.37 41.45 8.34 41.59 9.397C41.73 10.455 41.48 11.526 40.88 12.412C40.28 13.298 39.39 13.938 38.35 14.212L42.57 20.084H37.9L32.51 12.328H32.58H35.73C36.07 12.326 36.41 12.244 36.72 12.088C37.12 11.892 37.46 11.587 37.7 11.208C37.93 10.829 38.06 10.391 38.05 9.945C38.05 9.499 37.92 9.062 37.68 8.685C37.44 8.309 37.1 8.008 36.69 7.816C36.26 7.611 35.85 7.592 35.38 7.592H30.57V20.084H26.63V5.575Z" fill="currentColor"/>
  <path d="M46.88 5.61C46.23 5.61 45.6 5.865 45.14 6.322C44.67 6.778 44.4 7.398 44.39 8.049C44.39 11.218 44.39 14.387 44.39 17.556C44.4 18.207 44.67 18.827 45.14 19.284C45.6 19.74 46.23 19.995 46.88 19.995H57.9C58.56 19.995 59.19 19.74 59.65 19.284C60.12 18.827 60.39 18.207 60.4 17.556C60.4 14.387 60.4 11.218 60.4 8.049C60.39 7.398 60.12 6.778 59.65 6.322C59.19 5.865 58.56 5.61 57.9 5.61H46.88ZM48.34 8.862C48.34 8.685 48.38 8.51 48.45 8.347C48.51 8.184 48.61 8.035 48.74 7.91C48.87 7.785 49.01 7.686 49.18 7.618C49.34 7.55 49.52 7.516 49.7 7.516H55.09C55.27 7.516 55.45 7.55 55.61 7.618C55.77 7.686 55.92 7.785 56.05 7.91C56.17 8.035 56.27 8.183 56.34 8.347C56.41 8.51 56.45 8.685 56.45 8.862V16.737C56.45 17.094 56.3 17.437 56.05 17.689C55.8 17.942 55.45 18.083 55.09 18.083H49.7C49.34 18.083 48.99 17.941 48.74 17.689C48.49 17.436 48.34 17.094 48.34 16.737V8.862Z" fill="currentColor"/>
  <path d="M65.98 5.575L69.67 15.179L69.92 14.491C70.98 11.518 72.05 8.546 73.12 5.575H75.74C75.9 5.576 76.07 5.626 76.21 5.718C76.35 5.811 76.46 5.943 76.52 6.098L80.09 15.18L83.34 5.578H87.01L82.25 19.26C82.09 19.736 81.8 20.073 81.26 20.073H78.33L74.76 11.003L71.75 19.342C71.67 19.571 71.53 19.786 71.31 19.911C71.11 20.022 70.88 20.077 70.65 20.073H67.75L62.31 5.575H65.98Z" fill="currentColor"/>
  <path d="M93.63 8.787L92.49 11.935L91.5 14.685H95.91L94.24 10.362L93.63 8.787ZM96.77 6.454L102.17 20.062H97.99L96.65 16.599H90.81L89.56 20.062H85.86L91.52 5.575H95.56C95.56 5.576 95.57 5.577 95.57 5.579C95.83 5.598 96.09 5.69 96.3 5.845C96.51 6 96.67 6.21 96.77 6.454Z" fill="currentColor"/>
  <path d="M116.29 5.577H100.35C100.65 6.186 100.96 6.828 101.3 7.387C101.31 7.409 101.33 7.43 101.34 7.449C101.37 7.473 101.4 7.487 101.44 7.486H106.26V20.039H109.71C109.78 20.039 109.84 20.026 109.91 20C109.97 19.974 110.03 19.936 110.08 19.888C110.12 19.84 110.16 19.783 110.19 19.72C110.21 19.657 110.23 19.59 110.23 19.522V7.484H115.57C115.76 7.484 115.95 7.408 116.08 7.273C116.22 7.138 116.29 6.954 116.29 6.763V5.577Z" fill="currentColor"/>
  <path d="M133 5.577H117.06C117.36 6.186 117.67 6.828 118.01 7.387C118.02 7.41 118.03 7.431 118.05 7.449V7.449C118.08 7.473 118.11 7.486 118.15 7.486H122.97V20.039H126.42C126.48 20.039 126.55 20.026 126.61 20C126.68 19.974 126.74 19.936 126.78 19.888C126.83 19.84 126.87 19.783 126.9 19.72C126.92 19.657 126.94 19.59 126.94 19.522V7.484H132.27C132.37 7.484 132.46 7.466 132.55 7.43C132.64 7.393 132.72 7.34 132.79 7.273C132.85 7.206 132.91 7.127 132.94 7.039C132.98 6.952 133 6.858 133 6.763L133 5.577Z" fill="currentColor"/>
  <path d="M11.9125 11.1364H22.4443V21.6197C22.4443 21.7929 22.3752 21.959 22.2522 22.0815C22.1291 22.2039 21.9622 22.2727 21.7882 22.2727H17.9731V19.9917C16.0248 21.4752 13.639 22.277 11.186 22.2727C5.00795 22.2727 0 17.2865 0 11.1395C0 4.99244 5.01109 4.62744e-07 11.1892 4.62744e-07C13.1543 -0.000563356 15.0848 0.51411 16.7865 1.49221C18.4882 2.47032 19.901 3.87733 20.8827 5.57162L17.5551 7.48366H17.5507H17.5457C17.4488 7.53773 17.3395 7.56596 17.2284 7.5656C17.1271 7.56569 17.0273 7.54248 16.9366 7.49778C16.8459 7.45307 16.7668 7.38809 16.7055 7.3079C15.9072 6.16636 14.7714 5.30073 13.4559 4.83134C12.1405 4.36194 10.7108 4.31211 9.36559 4.68876C8.02038 5.06542 6.82649 5.84984 5.94989 6.933C5.0733 8.01616 4.55754 9.34423 4.47433 10.7326C4.39111 12.121 4.74457 13.5006 5.48556 14.6798C6.22656 15.859 7.31828 16.7792 8.60895 17.3123C9.89963 17.8455 11.3251 17.9652 12.6873 17.6548C14.0495 17.3444 15.2807 16.6193 16.2097 15.5803H11.2552V11.79C11.2553 11.6166 11.3246 11.4503 11.4479 11.3278C11.5712 11.2052 11.7383 11.1364 11.9125 11.1364Z" fill="#6fb62c"/>
  <text x="66.5" y="30" text-anchor="middle" font-size="7" font-weight="bold" fill="black">Monitor</text>
</svg>